<svg width="1080" height="1080" viewBox="0 0 1080 1080" fill="none" xmlns="http://www.w3.org/2000/svg">
<style>@media (prefers-color-scheme:dark){path{fill:#fafafa}}</style>
<path fill-rule="evenodd" clip-rule="evenodd" d="M948.207 584.093L949.287 507.009L975.973 501.459C989.779 511.634 992.17 552.026 988.391 584.324L948.207 584.093ZM861.206 797.692C724.149 797.692 734.175 611.535 852.876 611.535C973.814 611.535 976.822 797.692 861.206 797.692ZM853.493 658.941C794.875 658.941 789.862 750.979 857.658 750.979C914.425 750.671 912.882 658.633 853.107 658.633L853.493 658.941ZM862.286 584.093C731.167 584.093 750.449 692.704 623.65 705.346L505.335 704.883C507.803 548.943 277.883 541.851 259.063 687.77C217.877 681.295 179.698 675.129 175.841 673.895C202.219 438.405 359.793 547.247 358.328 451.663C357.788 418.055 362.493 284.16 362.493 284.16L677.254 281L689.672 340.586L666.534 341.279L705.098 482.497L864.677 487.353L880.103 461.761L923.912 463.611L923.063 584.247L862.286 584.093ZM623.187 342.59L496.773 346.367L497.313 445.728L651.571 448.965L623.187 342.59ZM91 683.993L132.418 496.14L185.02 509.245L137.123 693.089L91 683.993ZM383.009 611.843C503.946 611.843 507.032 798 391.416 798C254.127 797.692 264.231 611.535 382.855 611.535L383.009 611.843ZM387.405 750.979C444.557 750.979 443.092 658.941 383.317 658.941C323.543 658.941 319.532 750.671 387.251 750.671L387.405 750.979Z" fill="#212121"/>
</svg>
