<svg width="80" height="76" viewBox="0 0 80 76" fill="none" xmlns="http://www.w3.org/2000/svg">
<path fill-rule="evenodd" clip-rule="evenodd" d="M78.6206 60.55L1.86062 61.12C1.86062 61.12 -0.0393772 44.78 0.000622831 42.83C0.140623 36.45 2.17062 32.72 6.42062 31.42C7.42062 28.36 9.22062 23.27 10.5406 20.16C12.6106 15.3 16.1006 10.35 25.6606 8.9L28.7306 0.190002L51.7306 0L53.4906 8.8C61.6706 9.8 66.2206 13.55 69.4006 21.4C70.6806 24.56 72.2306 28.95 73.2506 31.92C77.5606 33.71 79.6206 37.67 79.6206 43.17C79.6406 45.2 78.6206 60.55 78.6206 60.55ZM15.2706 54.61C25.7006 54.61 25.7706 38.3 15.0906 38.3C4.41062 38.3 3.85062 54.61 15.2706 54.61V54.61ZM63.0406 24.61C60.1206 17.42 57.5506 15.34 48.1906 15.34H31.5006C20.2906 15.34 18.6206 19.34 16.8806 23.43C16.0506 25.43 14.9906 28.3 14.0806 30.89C25.3806 30.89 55.4406 30.78 65.3906 30.89C64.6106 28.69 63.7706 26.41 63.0406 24.6V24.61ZM65.4106 40.35C57.4106 40.35 56.9806 52.58 65.5506 52.58C73.3706 52.57 73.4206 40.34 65.4106 40.34V40.35ZM20.6706 70.61C20.6706 77.48 1.89062 77.48 1.89062 70.61V65.44L20.6706 64.8V70.61ZM78.6706 70.61C78.6706 77.48 60.6706 77.48 60.6706 70.61V65.01L78.6706 65.4V70.61Z" fill="url(#paint0_linear)"/>
<defs>
<linearGradient id="paint0_linear" x1="39.8206" y1="0.04" x2="39.8206" y2="75.76" gradientUnits="userSpaceOnUse">
<stop stop-color="#FFB400"/>
<stop offset="1" stop-color="#FF1E00"/>
</linearGradient>
</defs>
</svg>
